<svg width="216" height="53" viewBox="0 0 216 53" fill="none" xmlns="http://www.w3.org/2000/svg">
<path d="M68.9063 32.2405L67.8021 36.3278L46.7162 42.7428L45.3498 39.2119L64.9258 33.3835L46.0779 13.2989L18.9589 44.4997L16.1186 42.1771L19.2318 38.5815L0.0762024 18.0313L1.1804 13.944L22.5039 7.59319L23.6006 11.1787L4.0438 16.9358L21.7035 35.756L49.4146 3.87369L52.1752 6.30229L48.5194 10.4907L68.9063 32.2405Z" fill="black"/>
<path d="M214.786 28.8586L215.582 29.8029L213.613 35.9222L212.539 35.6625L214.398 30.0025L206.451 31.1788L209.418 42.8655L208.389 43.1598L208.045 41.8159L199.935 42.9885L199.14 42.0443L201.164 35.8787L202.205 36.2122L200.333 41.8557L207.779 40.7538L204.748 28.8119L205.789 28.5543L206.184 30.1268L214.786 28.8586Z" fill="#448AFF"/>
<path d="M31.5313 52.5353C29.7886 52.7813 28.3206 52.4553 27.1274 51.5573C25.9658 50.6548 25.2598 49.3163 25.0093 47.5419L23.2246 34.8993C22.9428 32.903 23.2487 31.2925 24.1423 30.0676C25.0314 28.8109 26.474 28.0417 28.4702 27.7599L33.7459 27.0152L34.1485 29.8669L28.9678 30.5983C28.2391 30.7011 27.6887 31.0374 27.3166 31.607C26.9401 32.1449 26.8055 32.7941 26.9129 33.5545L28.8586 47.3379C28.966 48.0983 29.2772 48.7007 29.7924 49.1451C30.3348 49.5533 30.9703 49.7059 31.6991 49.6031L36.8322 48.8784L37.2348 51.7302L31.5313 52.5353ZM46.6356 50.7424C44.4176 51.0555 42.6125 50.7448 41.2202 49.8102C39.8551 48.8395 39.0317 47.3561 38.7499 45.3598L36.9652 32.7172C36.6834 30.721 37.0662 29.0834 38.1137 27.8044C39.1884 26.4893 40.8348 25.6752 43.0528 25.3621C45.2708 25.049 47.0624 25.3778 48.4275 26.3485C49.8198 27.283 50.6568 28.7484 50.9386 30.7446L52.7233 43.3873C53.0051 45.3835 52.6086 47.0392 51.5339 48.3543C50.4864 49.6333 48.8537 50.4293 46.6356 50.7424ZM46.2197 47.7956C47.2336 47.6525 47.9855 47.2555 48.4753 46.6046C48.9924 45.9176 49.1726 45.0196 49.0161 43.9106L47.2314 31.268C47.0748 30.159 46.6553 29.3618 45.9727 28.8764C45.3174 28.3549 44.4828 28.1657 43.4688 28.3088C42.4549 28.452 41.6894 28.867 41.1723 29.5541C40.6825 30.2049 40.5158 31.0849 40.6724 32.1939L42.4571 44.8365C42.6137 45.9455 43.0196 46.7608 43.6749 47.2823C44.3575 47.7677 45.2057 47.9388 46.2197 47.7956ZM64.6032 47.8667C62.607 48.1485 60.9083 47.7904 59.507 46.7925C58.1058 45.7946 57.2665 44.3133 56.9892 42.3488L55.3185 30.5141C55.1262 29.1517 55.3273 27.9437 55.9219 26.8902C56.5482 25.8323 57.3912 25.0508 58.451 24.5457L64.5045 21.4128L63.4713 14.0933L67.2736 13.5566L71.9702 46.8267L64.6032 47.8667ZM67.7653 44.5118L64.9473 24.5497L60.9186 26.5727C60.1305 26.9425 59.6025 27.4371 59.3344 28.0567C59.0936 28.6401 59.0582 29.5338 59.2282 30.7379L60.7915 41.8121C60.9525 42.9527 61.4104 43.793 62.1653 44.3328C62.9202 44.8726 63.8679 45.0619 65.0086 44.9009L67.7653 44.5118ZM82.6274 45.3223C80.8846 45.5683 79.4167 45.2423 78.2234 44.3443C77.0619 43.4418 76.3559 42.1033 76.1054 40.3289L74.3207 27.6863C74.0299 25.6267 74.3722 23.9302 75.3473 22.5968C76.3225 21.2634 77.935 20.4379 80.1847 20.1203C82.4344 19.8028 84.1965 20.1519 85.471 21.1677C86.7772 22.179 87.576 23.7145 87.866 25.7741L88.175 27.9604C88.363 29.2912 88.126 30.3588 87.464 31.1633C86.7972 31.936 85.8706 32.5839 84.6841 33.1069L79.2971 35.4671L79.9546 40.1249C80.062 40.8853 80.3732 41.4877 80.8884 41.9321C81.4308 42.3403 82.0664 42.4929 82.7951 42.3901L87.928 41.6655L88.331 44.5172L82.6274 45.3223ZM81.6596 31.2555C82.665 30.8227 83.333 30.5183 83.6637 30.3424C84.0215 30.1303 84.2437 29.8727 84.3302 29.5696C84.4167 29.2666 84.413 28.7823 84.319 28.1169L83.95 25.5029C83.8069 24.4889 83.4324 23.7823 82.8267 23.3831C82.2526 22.9793 81.5061 22.8423 80.5872 22.9721C79.7 23.0973 79.007 23.4537 78.5083 24.0411C78.0412 24.6242 77.8747 25.391 78.0089 26.3415L78.8744 32.4727L81.6596 31.2555ZM94.397 43.6608L89.7 10.3907L96.022 9.49829L105.168 28.2762L105.501 28.2292L109.235 7.63309L115.318 6.77429L120.015 40.0445L115.833 40.6349L111.84 12.3553L108.216 32.6936L103.7 33.331L94.581 14.7433L98.58 43.0704L94.397 43.6608ZM130.901 38.5078C129.76 38.6688 128.659 38.5335 127.596 38.1018C126.565 37.6656 125.695 36.9967 124.986 36.0949C124.308 35.1887 123.882 34.1177 123.708 32.882L123.359 30.4105C123.149 28.9212 123.337 27.6182 123.922 26.5014C124.54 25.3801 125.374 24.5352 126.425 23.9667L132.009 20.9484L131.694 18.7146C131.587 17.9541 131.262 17.3698 130.72 16.9616C130.204 16.5172 129.582 16.3465 128.854 16.4494L123.483 17.2075L123.087 14.4033L128.79 13.5982C130.533 13.3522 131.985 13.6805 133.147 14.583C134.336 15.4493 135.055 16.7697 135.306 18.5441L137.983 37.5081L130.901 38.5078ZM134.009 35.112L132.432 23.9427L128.471 26.1016C127.692 26.5348 127.166 27.0453 126.894 27.6331C126.653 28.2165 126.615 29.0944 126.781 30.2668L127.156 32.9284C127.277 33.7839 127.697 34.468 128.416 34.9805C129.134 35.4931 129.937 35.6868 130.824 35.5615L134.009 35.112ZM139.733 12.0535L142.68 11.6375L143.302 12.9555L145.17 12.11C146.443 11.5102 147.449 11.0775 148.187 10.8117C148.952 10.5097 149.683 10.3096 150.38 10.2112C151.521 10.0501 152.416 10.3277 153.067 11.0438C153.717 11.7599 154.132 12.7517 154.311 14.0191L157.243 34.7892L153.441 35.3259L150.683 15.7916C150.553 14.8727 150.401 14.2479 150.225 13.9173C150.044 13.5549 149.701 13.4096 149.194 13.4811C148.94 13.5169 147.253 14.2721 144.133 15.7468L147.024 36.2317L143.222 36.7684L139.733 12.0535ZM158.471 5.28779L157.935 1.48549L161.737 0.948792L162.274 4.75109L158.471 5.28779ZM162.531 34.0427L159.042 9.32779L162.844 8.79099L166.333 33.506L162.531 34.0427ZM177.084 31.9884C175.943 32.1494 174.841 32.0141 173.779 31.5824C172.747 31.1462 171.877 30.4773 171.168 29.5755C170.491 28.6693 170.065 27.5983 169.891 26.3626L169.542 23.8911C169.332 22.4018 169.519 21.0988 170.105 19.982C170.722 18.8607 171.556 18.0158 172.607 17.4473L178.192 14.429L177.877 12.1952C177.77 11.4347 177.445 10.8504 176.902 10.4422C176.387 9.99779 175.765 9.82709 175.036 9.92999L169.666 10.6882L169.27 7.88399L174.973 7.07879C176.716 6.83279 178.168 7.16109 179.33 8.06359C180.518 8.92989 181.238 10.2503 181.488 12.0247L184.166 30.9887L177.084 31.9884ZM180.192 28.5926L178.615 17.4233L174.654 19.5822C173.875 20.0154 173.349 20.5259 173.076 21.1137C172.836 21.6971 172.798 22.575 172.963 23.7474L173.339 26.409C173.46 27.2645 173.88 27.9486 174.598 28.4611C175.317 28.9737 176.12 29.1674 177.007 29.0421L180.192 28.5926ZM194.633 29.511C192.89 29.757 191.422 29.431 190.229 28.533C189.068 27.6305 188.361 26.292 188.111 24.5176L186.326 11.875C186.045 9.87879 186.35 8.26819 187.244 7.04329C188.133 5.78669 189.576 5.01749 191.572 4.73569L196.848 3.99089L197.25 6.84269L192.069 7.57399C191.341 7.67689 190.79 8.01309 190.418 8.58269C190.042 9.12059 189.907 9.76979 190.015 10.5302L191.96 24.3136C192.068 25.074 192.379 25.6764 192.894 26.1208C193.436 26.529 194.072 26.6817 194.801 26.5788L199.934 25.8542L200.336 28.7059L194.633 29.511Z" fill="white"/>
</svg>
